<svg width="28" height="28" viewBox="0 0 28 28" xmlns="http://www.w3.org/2000/svg" fill="none">
  <path d="M14 2C13.8 5.2 11.9 7.1 10.1 8.9C8.1 10.9 6 13 6 16.5C6 21.2 9.8 25 14.5 25C19.2 25 23 21.2 23 16.5C23 12.9 20.9 10.2 18.8 8.1C17.2 6.5 15.7 5.1 15.4 2.8C15.3 2.3 14.9 2 14.4 2H14Z" fill="#EAEAEA"/>
  <path d="M14.4 10.1C13.8 12 12.7 13 11.8 13.9C10.8 14.9 10 15.7 10 17.3C10 19.8 12 21.8 14.5 21.8C17 21.8 19 19.8 19 17.3C19 15.7 18 14.5 17.1 13.6C16.4 12.9 15.7 12.2 15.6 11C15.5 10.6 15.2 10.3 14.8 10.2C14.6 10.1 14.5 10.1 14.4 10.1Z" fill="#BDBDBD"/>
</svg>
